<svg viewBox="0 0 1008 1008" width="1008" height="1008" x="0" y="0" xmlns="http://www.w3.org/2000/svg"><defs><pattern id="pattern" x="0" y="0" width="8" height="8" patternUnits="userSpaceOnUse"><polygon points="0,4 0,8 8,0 4,0" fill="#ffffff"></polygon><polygon points="4,8 8,8 8,4" fill="#ffffff"></polygon></pattern><mask id="grating" x="0" y="0" width="1" height="1"><rect x="0" y="0" width="100%" height="100%" fill="url(#pattern)"></rect></mask></defs><g id="horizStripes"><rect fill="#3B5554" height="480" width="100%" x="0" y="0"></rect><rect fill="#B62531" height="16" width="100%" x="0" y="480"></rect><rect fill="#3B5554" height="16" width="100%" x="0" y="496"></rect><rect fill="#B62531" height="48" width="100%" x="0" y="512"></rect><rect fill="#3B5554" height="8" width="100%" x="0" y="560"></rect><rect fill="#B62531" height="16" width="100%" x="0" y="568"></rect><rect fill="#3B5554" height="8" width="100%" x="0" y="584"></rect><rect fill="#B62531" height="48" width="100%" x="0" y="592"></rect><rect fill="#3B5554" height="8" width="100%" x="0" y="640"></rect><rect fill="#B62531" height="16" width="100%" x="0" y="648"></rect><rect fill="#3B5554" height="8" width="100%" x="0" y="664"></rect><rect fill="#B62531" height="48" width="100%" x="0" y="672"></rect><rect fill="#3B5554" height="16" width="100%" x="0" y="720"></rect><rect fill="#CCBAAF" height="16" width="100%" x="0" y="736"></rect><rect fill="#3B5554" height="16" width="100%" x="0" y="752"></rect><rect fill="#B62531" height="48" width="100%" x="0" y="768"></rect><rect fill="#3B5554" height="8" width="100%" x="0" y="816"></rect><rect fill="#B62531" height="16" width="100%" x="0" y="824"></rect><rect fill="#3B5554" height="8" width="100%" x="0" y="840"></rect><rect fill="#B62531" height="48" width="100%" x="0" y="848"></rect><rect fill="#3B5554" height="8" width="100%" x="0" y="896"></rect><rect fill="#B62531" height="16" width="100%" x="0" y="904"></rect><rect fill="#3B5554" height="8" width="100%" x="0" y="920"></rect><rect fill="#B62531" height="48" width="100%" x="0" y="928"></rect><rect fill="#3B5554" height="16" width="100%" x="0" y="976"></rect><rect fill="#B62531" height="16" width="100%" x="0" y="992"></rect></g><g id="vertStripes" mask="url(#grating)"><rect fill="#3B5554" height="100%" width="480" x="0" y="0"></rect><rect fill="#B62531" height="100%" width="16" x="480" y="0"></rect><rect fill="#3B5554" height="100%" width="16" x="496" y="0"></rect><rect fill="#B62531" height="100%" width="48" x="512" y="0"></rect><rect fill="#3B5554" height="100%" width="8" x="560" y="0"></rect><rect fill="#B62531" height="100%" width="16" x="568" y="0"></rect><rect fill="#3B5554" height="100%" width="8" x="584" y="0"></rect><rect fill="#B62531" height="100%" width="48" x="592" y="0"></rect><rect fill="#3B5554" height="100%" width="8" x="640" y="0"></rect><rect fill="#B62531" height="100%" width="16" x="648" y="0"></rect><rect fill="#3B5554" height="100%" width="8" x="664" y="0"></rect><rect fill="#B62531" height="100%" width="48" x="672" y="0"></rect><rect fill="#3B5554" height="100%" width="16" x="720" y="0"></rect><rect fill="#CCBAAF" height="100%" width="16" x="736" y="0"></rect><rect fill="#3B5554" height="100%" width="16" x="752" y="0"></rect><rect fill="#B62531" height="100%" width="48" x="768" y="0"></rect><rect fill="#3B5554" height="100%" width="8" x="816" y="0"></rect><rect fill="#B62531" height="100%" width="16" x="824" y="0"></rect><rect fill="#3B5554" height="100%" width="8" x="840" y="0"></rect><rect fill="#B62531" height="100%" width="48" x="848" y="0"></rect><rect fill="#3B5554" height="100%" width="8" x="896" y="0"></rect><rect fill="#B62531" height="100%" width="16" x="904" y="0"></rect><rect fill="#3B5554" height="100%" width="8" x="920" y="0"></rect><rect fill="#B62531" height="100%" width="48" x="928" y="0"></rect><rect fill="#3B5554" height="100%" width="16" x="976" y="0"></rect><rect fill="#B62531" height="100%" width="16" x="992" y="0"></rect></g></svg>