<svg xmlns="http://www.w3.org/2000/svg" version="1.1" xmlns:xlink="http://www.w3.org/1999/xlink" xmlns:svgjs="http://svgjs.com/svgjs" width="1440" height="560" preserveAspectRatio="none" viewBox="0 0 1440 560">
    <g mask="url(&quot;#SvgjsMask1022&quot;)" fill="none">
        <rect width="1440" height="560" x="0" y="0" fill="#0e2a47"></rect>
        <path d="M996.7309903550125 233.2550721840884L1014.289934776551 179.21419800774413 924.4491513012654 179.8962184636085z" fill="rgba(28, 83, 142, 0.4)" class="triangle-float1"></path>
        <path d="M1160.3075710208277 225.26614791675416L1239.3552266530633 289.27767730923586 1303.366756045545 210.23002167700037 1224.3191004133093 146.21849228451865z" fill="rgba(28, 83, 142, 0.4)" class="triangle-float3"></path>
        <path d="M34.65006222059566 513.0439785221891L100.65497155652997 579.0488878581234 166.65988089246426 513.0439785221891 100.65497155652994 447.03906918625484z" fill="rgba(28, 83, 142, 0.4)" class="triangle-float3"></path>
        <path d="M1163.8902182226984 283.6219200973468L1213.741021440412 337.0803616376204 1269.0032821419657 235.57493604091346z" fill="rgba(28, 83, 142, 0.4)" class="triangle-float1"></path>
        <path d="M-89.19 382.29 a111.96 111.96 0 1 0 223.92 0 a111.96 111.96 0 1 0 -223.92 0z" fill="rgba(28, 83, 142, 0.4)" class="triangle-float2"></path>
        <path d="M912.5254150543893 261.052000353391L1012.9596501625238 179.72196037667044 931.6296101858031 79.28772526853606 831.1953750776688 160.61776524525663z" fill="rgba(28, 83, 142, 0.4)" class="triangle-float2"></path>
        <path d="M1313.39 540.68 a96.88 96.88 0 1 0 193.76 0 a96.88 96.88 0 1 0 -193.76 0z" fill="rgba(28, 83, 142, 0.4)" class="triangle-float2"></path>
        <path d="M748.6388194247513 464.7877625847841L835.4935366437196 501.65540271324284 785.5064595532101 377.93304536581576z" fill="rgba(28, 83, 142, 0.4)" class="triangle-float2"></path>
        <path d="M964.298489619378 27.702177406482008L898.8100735684792-37.7862386444167 833.3216575175805 93.19059345738073z" fill="rgba(28, 83, 142, 0.4)" class="triangle-float2"></path>
        <path d="M1191.879,386.29C1205.859,385.819,1217.351,376.396,1224.206,364.203C1230.909,352.281,1231.865,338.214,1225.801,325.955C1218.923,312.05,1207.373,299.61,1191.879,298.847C1175.256,298.028,1159.501,307.637,1151.628,322.3C1144.127,336.272,1147.104,353.092,1155.548,366.515C1163.417,379.024,1177.109,386.787,1191.879,386.29" fill="rgba(28, 83, 142, 0.4)" class="triangle-float3"></path>
        <path d="M486.5546942172913 199.7656254090819L448.22908887334495 88.45998547568247 375.24905428389184 238.09123075302824z" fill="rgba(28, 83, 142, 0.4)" class="triangle-float1"></path>
        <path d="M1319.383,704.383C1357.119,702.596,1386.736,677.796,1407.861,646.477C1432.784,609.527,1458.45,566.353,1439.787,525.879C1418.855,480.484,1369.287,451.688,1319.383,454.599C1273.255,457.29,1242.355,497.622,1221.075,538.636C1201.804,575.778,1193.747,619.616,1215.093,655.606C1236.077,690.984,1278.296,706.329,1319.383,704.383" fill="rgba(28, 83, 142, 0.4)" class="triangle-float2"></path>
        <path d="M327.9238395660566 123.47637241788324L248.40395316271452 38.20173441422202 163.12931515905328 117.7216208175641 242.64920156239538 202.99625882122533z" fill="rgba(28, 83, 142, 0.4)" class="triangle-float2"></path>
        <path d="M1389.989,700.963C1442.376,699.543,1487.97,667.005,1512.905,620.911C1536.638,577.039,1530.956,526.039,1508.788,481.356C1483.274,429.927,1447.385,371.9,1389.989,373.148C1333.57,374.374,1306.239,436.473,1279.811,486.334C1255.762,531.707,1231.507,582.221,1254.959,627.905C1280.008,676.701,1335.159,702.45,1389.989,700.963" fill="rgba(28, 83, 142, 0.4)" class="triangle-float3"></path>
        <path d="M456.85022853970094 261.4386221746244L376.54832472392934 127.79381126035102 323.2054176254276 341.740525990396z" fill="rgba(28, 83, 142, 0.4)" class="triangle-float1"></path>
        <path d="M666.221,331.246C690.415,332.994,717.901,331.97,731.248,311.715C745.542,290.022,741.364,260.72,726.92,239.127C713.909,219.676,689.6,213.46,666.221,214.502C644.856,215.454,624.795,225.56,614.219,244.148C603.753,262.541,604.811,285.194,615.659,303.364C626.234,321.076,645.646,329.759,666.221,331.246" fill="rgba(28, 83, 142, 0.4)" class="triangle-float1"></path>
        <path d="M898.41 553.47 a127.8 127.8 0 1 0 255.6 0 a127.8 127.8 0 1 0 -255.6 0z" fill="rgba(28, 83, 142, 0.4)" class="triangle-float1"></path>
    </g>
    <defs>
        <mask id="SvgjsMask1022">
            <rect width="1440" height="560" fill="#ffffff"></rect>
        </mask>
        <style>
            @keyframes float1 {
                0%{transform: translate(0, 0)}
                50%{transform: translate(-10px, 0)}
                100%{transform: translate(0, 0)}
            }

            .triangle-float1 {
                animation: float1 5s infinite;
            }

            @keyframes float2 {
                0%{transform: translate(0, 0)}
                50%{transform: translate(-5px, -5px)}
                100%{transform: translate(0, 0)}
            }

            .triangle-float2 {
                animation: float2 4s infinite;
            }

            @keyframes float3 {
                0%{transform: translate(0, 0)}
                50%{transform: translate(0, -10px)}
                100%{transform: translate(0, 0)}
            }

            .triangle-float3 {
                animation: float3 6s infinite;
            }
        </style>
    </defs>
</svg>